<svg width="80" height="40" viewBox="0 0 80 40" fill="none" xmlns="http://www.w3.org/2000/svg">
<path d="M8.22451 38.5066C4.6862 38.5066 1.81782 35.6383 1.81782 32.0999V8.44448C1.81782 4.90616 4.68619 2.03779 8.22451 2.03779H71.3058C74.8441 2.03779 77.7125 4.90616 77.7125 8.44448V32.0999C77.7125 35.6383 74.8441 38.5066 71.3058 38.5066H8.22451Z" stroke="#E0E9EF" stroke-width="2.95693"/>
<path d="M23.7414 24.5399C23.3551 24.5399 23.0791 24.4112 22.9135 24.1536C22.7479 23.896 22.7525 23.5786 22.9273 23.2014L26.4598 15.4602C26.607 15.1474 26.7818 14.922 26.9842 14.784C27.1866 14.6368 27.4212 14.5633 27.688 14.5633C27.9547 14.5633 28.1893 14.6368 28.3917 14.784C28.5941 14.922 28.7643 15.1474 28.9023 15.4602L32.4624 23.2014C32.6372 23.5878 32.6418 23.9098 32.4762 24.1674C32.3198 24.4158 32.0622 24.5399 31.7035 24.5399C31.3907 24.5399 31.1469 24.4664 30.9721 24.3192C30.8065 24.172 30.6593 23.942 30.5305 23.6292L29.951 22.3045H25.4111L24.8454 23.6292C24.7074 23.9512 24.5602 24.1858 24.4038 24.333C24.2474 24.471 24.0266 24.5399 23.7414 24.5399ZM27.6604 16.9643L26.1287 20.6348H29.2472L27.688 16.9643H27.6604ZM36.371 24.4158C35.6259 24.4158 35.2533 24.0432 35.2533 23.298V15.8052C35.2533 15.06 35.6259 14.6874 36.371 14.6874H39.0618C40.7177 14.6874 42.001 15.1106 42.9117 15.957C43.8225 16.7941 44.2778 17.99 44.2778 19.5447C44.2778 21.0994 43.8225 22.2999 42.9117 23.1462C42.001 23.9926 40.7177 24.4158 39.0618 24.4158H36.371ZM37.3921 22.6633H38.9376C41.0075 22.6633 42.0424 21.6238 42.0424 19.5447C42.0424 17.4748 41.0075 16.4399 38.9376 16.4399H37.3921V22.6633ZM48.4553 24.4158C47.7101 24.4158 47.3376 24.0432 47.3376 23.298V15.8052C47.3376 15.06 47.7101 14.6874 48.4553 14.6874H51.1461C52.802 14.6874 54.0853 15.1106 54.996 15.957C55.9068 16.7941 56.3621 17.99 56.3621 19.5447C56.3621 21.0994 55.9068 22.2999 54.996 23.1462C54.0853 23.9926 52.802 24.4158 51.1461 24.4158H48.4553ZM49.4764 22.6633H51.0219C53.0918 22.6633 54.1267 21.6238 54.1267 19.5447C54.1267 17.4748 53.0918 16.4399 51.0219 16.4399H49.4764V22.6633Z" fill="#3C3C3C"/>
</svg>
