<svg width="24" height="24" viewBox="0 0 24 24" fill="none" xmlns="http://www.w3.org/2000/svg">
<path fill-rule="evenodd" clip-rule="evenodd" d="M18.1386 7.07186C18.7149 6.49563 19.6491 6.49563 20.2253 7.07186C20.8016 7.64809 20.8016 8.58234 20.2253 9.15857L12.8477 16.5362C12.2715 17.1124 11.3372 17.1124 10.761 16.5362L3.38334 9.15857C2.80711 8.58234 2.80711 7.64809 3.38334 7.07186C3.95957 6.49563 4.89383 6.49563 5.47006 7.07186L11.8043 13.4061L18.1386 7.07186Z" fill="#1A1A1A"/>
<mask id="mask0_309_246" style="mask-type:alpha" maskUnits="userSpaceOnUse" x="2" y="6" width="19" height="11">
<path fill-rule="evenodd" clip-rule="evenodd" d="M18.1386 7.07186C18.7149 6.49563 19.6491 6.49563 20.2253 7.07186C20.8016 7.64809 20.8016 8.58234 20.2253 9.15857L12.8477 16.5362C12.2715 17.1124 11.3372 17.1124 10.761 16.5362L3.38334 9.15857C2.80711 8.58234 2.80711 7.64809 3.38334 7.07186C3.95957 6.49563 4.89383 6.49563 5.47006 7.07186L11.8043 13.4061L18.1386 7.07186Z" fill="white"/>
</mask>
<g mask="url(#mask0_309_246)">
<rect x="0.000976562" y="-0.000366211" width="23.6084" height="23.6084" fill="#ADBDC6"/>
</g>
</svg>
