<svg width="370" height="99" viewBox="0 0 370 99" fill="none" xmlns="http://www.w3.org/2000/svg">
<line x1="369.617" y1="43.0005" x2="-3.05176e-05" y2="43.0005" stroke="black" stroke-width="0.000985645"/>
<rect y="0.617188" width="369.617" height="42.3827" fill="url(#paint0_linear_317_261)"/>
<mask id="mask0_317_261" style="mask-type:alpha" maskUnits="userSpaceOnUse" x="0" y="43" width="370" height="56">
<rect y="43" width="369.617" height="55.1961" fill="#E0E9EF"/>
</mask>
<g mask="url(#mask0_317_261)">
<path d="M244.44 43H369.124L385.387 70.598L369.124 98.1961H244.44V43Z" fill="#2EB17F"/>
<path d="M282.785 74.8932C282.297 74.8932 281.801 74.838 281.295 74.7277C280.798 74.6173 280.366 74.4517 279.998 74.2309C279.703 74.0745 279.519 73.8813 279.446 73.6513C279.372 73.4121 279.381 73.1914 279.473 72.989C279.574 72.7866 279.735 72.644 279.956 72.5612C280.177 72.4692 280.43 72.4922 280.715 72.6302C281.074 72.805 281.414 72.9292 281.736 73.0028C282.058 73.0764 282.38 73.1132 282.702 73.1132C283.825 73.1132 284.386 72.6946 284.386 71.8575C284.386 71.0847 283.861 70.6983 282.813 70.6983H281.998C281.695 70.6983 281.46 70.6247 281.295 70.4776C281.138 70.3212 281.06 70.1096 281.06 69.8428C281.06 69.5668 281.138 69.3552 281.295 69.208C281.46 69.0517 281.695 68.9735 281.998 68.9735H282.606C283.066 68.9735 283.429 68.8677 283.696 68.6561C283.963 68.4445 284.096 68.1501 284.096 67.7729C284.096 67.0186 283.604 66.6414 282.619 66.6414C282.316 66.6414 282.021 66.6782 281.736 66.7518C281.46 66.8162 281.157 66.9358 280.826 67.1106C280.568 67.2394 280.338 67.2624 280.136 67.1796C279.933 67.0968 279.781 66.9542 279.68 66.7518C279.588 66.5494 279.57 66.3378 279.625 66.1171C279.68 65.8963 279.841 65.7123 280.108 65.5651C280.908 65.0959 281.81 64.8614 282.813 64.8614C283.861 64.8614 284.68 65.0959 285.269 65.5651C285.858 66.0343 286.152 66.6782 286.152 67.497C286.152 68.0029 286.023 68.4491 285.766 68.8355C285.508 69.2218 285.149 69.5024 284.689 69.6772C285.241 69.8336 285.669 70.1234 285.973 70.5466C286.285 70.9605 286.442 71.4619 286.442 72.0506C286.442 72.9338 286.115 73.6283 285.462 74.1343C284.809 74.6403 283.917 74.8932 282.785 74.8932ZM289.159 74.8105C288.791 74.8105 288.496 74.7001 288.276 74.4793C288.064 74.2585 287.958 73.9733 287.958 73.6237C287.958 73.2834 288.064 73.0074 288.276 72.7958C288.496 72.575 288.791 72.4646 289.159 72.4646C289.527 72.4646 289.812 72.575 290.014 72.7958C290.226 73.0074 290.332 73.2834 290.332 73.6237C290.332 73.9733 290.226 74.2585 290.014 74.4793C289.812 74.7001 289.527 74.8105 289.159 74.8105ZM299.724 69.5944L298.164 70.1326C299.958 73.4995 302.884 75.3486 307.534 76.011C307.769 75.5418 308.224 74.7829 308.596 74.3965C304.153 73.8997 301.145 72.3128 299.724 69.5944ZM296.812 68.0903V69.7048H305.657V68.0903H296.812ZM296.136 64.8476V66.4896H307.962V64.8476H296.136ZM301.173 63.0261V68.8217H302.897V63.0261H301.173ZM305.119 68.0903V68.3939C303.863 72.1472 300.207 73.7755 295.57 74.3827C295.888 74.7553 296.315 75.5418 296.467 75.9834C301.255 75.183 305.271 73.1684 306.927 68.6975L305.768 68.0351L305.478 68.0903H305.119ZM314.01 66.0067V67.6902H322.537V66.0067H314.01ZM319.295 63.1779V73.9687C319.295 74.2861 319.157 74.3827 318.812 74.3965C318.481 74.4103 317.28 74.4103 316.204 74.3551C316.452 74.7967 316.756 75.5418 316.838 75.9972C318.37 76.011 319.419 75.9834 320.095 75.7212C320.757 75.4728 321.006 75.0312 321.006 73.9825V63.1779H319.295ZM314.631 69.3598C315.252 70.4224 316.066 71.8437 316.424 72.6854L317.998 71.8851C317.584 71.0433 316.714 69.6772 316.093 68.6699L314.631 69.3598ZM311.471 67.083V75.9558H313.154V65.4409L313.14 65.4133L311.471 67.083ZM312.851 63.0951C312.105 65.1235 310.85 67.1382 309.525 68.3939C309.829 68.8079 310.325 69.7186 310.505 70.1326C312.064 68.5457 313.554 66.0205 314.479 63.6194L312.851 63.0951ZM324.446 64.2128C325.191 64.9027 326.198 65.8825 326.64 66.5172L327.813 65.3305C327.343 64.7234 326.295 63.7988 325.55 63.1503L324.446 64.2128ZM323.769 67.2762V68.8631H327.067V67.2762H323.769ZM328.834 64.0748V65.7445H336.534V64.0748H328.834ZM332.504 64.6268V73.8307C332.504 74.0791 332.408 74.1619 332.132 74.1757C331.842 74.1757 330.821 74.1895 329.938 74.1343C330.214 74.5897 330.531 75.4176 330.614 75.9282C331.897 75.9282 332.808 75.873 333.443 75.597C334.064 75.3072 334.271 74.8105 334.271 73.8583V64.6268H332.504ZM325.784 75.7764C326.074 75.4314 326.612 75.045 329.703 72.9476C329.537 72.6026 329.331 71.8851 329.248 71.4159L325.839 73.6237L325.425 74.1757L325.784 75.7764ZM325.784 75.7764C325.784 75.1968 327.399 74.2171 327.399 74.2171V67.2762H325.798V73.058C325.798 73.6927 325.329 74.1619 325.011 74.3551C325.287 74.6863 325.674 75.3762 325.784 75.7764ZM343.175 66.1723V75.942H344.886V66.1723H343.175ZM340.663 68.9321H347.522V69.8704H340.663V68.9321ZM340.663 66.738H347.522V67.6764H340.663V66.738ZM339.049 65.3857V71.2365H349.219V65.3857H339.049ZM337.821 72.1472V73.6789H350.337V72.1472H337.821ZM340.139 63.7298C340.663 64.3646 341.257 65.2477 341.491 65.7997L343.009 65.0959C342.733 64.5164 342.099 63.6746 341.574 63.0813L340.139 63.7298ZM346.583 63.1227C346.28 63.9092 345.7 64.9441 345.217 65.6203L346.68 66.1309C347.177 65.5237 347.839 64.5854 348.418 63.6608L346.583 63.1227Z" fill="white"/>
<path d="M122.22 43H244.933L261.196 70.598L244.933 98.1961H122.22V43Z" fill="white"/>
<path d="M122.22 42.0144H121.235V43V98.1961V99.1817H122.22H244.933H245.496L245.782 98.6965L262.045 71.0985L262.34 70.598L262.045 70.0976L245.782 42.4996L245.496 42.0144H244.933H122.22Z" stroke="#A4B6C0" stroke-opacity="0.3" stroke-width="1.97129"/>
<path d="M159.904 74.196C159.555 74.196 159.302 74.1179 159.145 73.9615C158.989 73.7959 158.911 73.5567 158.911 73.2439C158.911 73.0415 158.961 72.8529 159.063 72.6782C159.164 72.5034 159.302 72.324 159.476 72.14L162.071 69.4078C162.457 68.9938 162.733 68.6258 162.899 68.3039C163.073 67.9819 163.161 67.6599 163.161 67.3379C163.161 66.51 162.65 66.096 161.629 66.096C161.362 66.096 161.086 66.1328 160.801 66.2064C160.525 66.28 160.235 66.4088 159.932 66.5928C159.683 66.74 159.453 66.7722 159.242 66.6894C159.04 66.6066 158.888 66.464 158.787 66.2616C158.695 66.0592 158.672 65.8476 158.718 65.6268C158.773 65.3969 158.925 65.2083 159.173 65.0611C159.578 64.8127 160.019 64.6287 160.498 64.5091C160.976 64.3803 161.45 64.3159 161.919 64.3159C163.004 64.3159 163.832 64.5597 164.403 65.0473C164.982 65.5257 165.272 66.211 165.272 67.1033C165.272 67.6921 165.134 68.2579 164.858 68.8006C164.591 69.3342 164.15 69.9137 163.533 70.5393L161.657 72.4436H164.858C165.456 72.4436 165.755 72.7333 165.755 73.3129C165.755 73.9017 165.456 74.196 164.858 74.196H159.904ZM168.279 74.265C167.911 74.265 167.616 74.1546 167.396 73.9339C167.184 73.7131 167.078 73.4279 167.078 73.0783C167.078 72.7379 167.184 72.462 167.396 72.2504C167.616 72.0296 167.911 71.9192 168.279 71.9192C168.647 71.9192 168.932 72.0296 169.134 72.2504C169.346 72.462 169.452 72.7379 169.452 73.0783C169.452 73.4279 169.346 73.7131 169.134 73.9339C168.932 74.1546 168.647 74.265 168.279 74.265ZM174.897 63.1844V64.6885H180.224V63.1844H174.897ZM176.567 67.3793V68.8282H178.361V72.278H176.567V73.7269H179.837V67.3793H176.567ZM176.512 63.8744C176.222 66.4134 175.67 68.842 174.525 70.3599C174.828 70.7187 175.297 71.5328 175.449 71.8916C176.884 70.0287 177.671 67.1309 178.085 64.0952L176.512 63.8744ZM175.877 67.3793V74.7756H177.326V67.3793H175.877ZM181.479 70.6635V72.071H186.433V70.6635H181.479ZM181.493 68.4005V69.6562H186.433V68.4005H181.493ZM181.493 66.0408V67.4345H186.433V66.0408H181.493ZM183.149 66.6618V71.2982H184.57V66.6618H183.149ZM185.674 66.0408V73.6717C185.674 73.8649 185.619 73.9201 185.426 73.9339C185.233 73.9339 184.543 73.9339 183.949 73.9063C184.156 74.3202 184.377 74.9964 184.419 75.4518C185.412 75.4518 186.116 75.4242 186.599 75.162C187.109 74.9274 187.247 74.472 187.247 73.6993V66.0408H185.674ZM180.569 66.0408V69.4216C180.569 70.9947 180.445 73.0369 179.216 74.4582C179.534 74.6376 180.169 75.1896 180.403 75.4932C181.824 73.8787 182.087 71.2845 182.087 69.4354V66.0408H180.569ZM181.893 62.4669C181.41 63.9986 180.555 65.5165 179.561 66.4686C179.906 66.717 180.5 67.2689 180.748 67.5449C181.811 66.4272 182.804 64.6333 183.411 62.8394L181.893 62.4669ZM182.225 63.6122L181.562 64.9507H184.902V63.6122H182.225ZM184.391 63.6122V63.902C184.184 64.5229 183.673 65.5165 183.232 66.1374C183.563 66.3306 184.06 66.6342 184.35 66.855C184.902 66.1788 185.619 65.1025 186.047 64.2607L184.984 63.5432L184.75 63.6122H184.391ZM196.607 62.5359C196.566 67.0206 196.704 71.6294 193.226 74.1822C193.682 74.472 194.192 74.9964 194.468 75.4104C198.166 72.5264 198.235 67.4345 198.291 62.5359H196.607ZM198.166 66.441L196.704 66.5652C196.924 68.2211 197.407 73.0507 200.623 75.438C200.899 75.0102 201.354 74.5134 201.823 74.196C198.746 72.0572 198.304 67.8485 198.166 66.441ZM189.915 63.6812C190.618 64.3435 191.653 65.2957 192.122 65.8476L193.268 64.6609C192.757 64.1228 191.695 63.2534 191.005 62.6463L189.915 63.6812ZM190.908 75.1896C191.157 74.886 191.612 74.4996 194.22 72.5954C194.068 72.278 193.834 71.6294 193.737 71.1879L190.922 73.1611L190.549 73.6855L190.908 75.1896ZM188.838 66.7308V68.3177H192.109V66.7308H188.838ZM190.908 75.1896C190.908 74.61 192.495 73.3819 192.495 73.3819V66.7308H190.894V72.4988C190.894 73.2301 190.411 73.7821 190.066 74.0443C190.342 74.2926 190.77 74.8584 190.908 75.1896ZM203.566 63.6674C204.311 64.3573 205.318 65.3371 205.76 65.9718L206.933 64.7851C206.464 64.178 205.415 63.2534 204.67 62.6049L203.566 63.6674ZM202.89 66.7308V68.3177H206.188V66.7308H202.89ZM207.954 63.5294V65.1991H215.654V63.5294H207.954ZM211.624 64.0814V73.2853C211.624 73.5337 211.528 73.6165 211.252 73.6303C210.962 73.6303 209.941 73.6441 209.058 73.5889C209.334 74.0443 209.651 74.8722 209.734 75.3828C211.017 75.3828 211.928 75.3276 212.563 75.0516C213.184 74.7618 213.391 74.265 213.391 73.3129V64.0814H211.624ZM204.904 75.231C205.194 74.886 205.732 74.4996 208.823 72.4022C208.658 72.0572 208.451 71.3396 208.368 70.8705L204.959 73.0783L204.545 73.6303L204.904 75.231ZM204.904 75.231C204.904 74.6514 206.519 73.6717 206.519 73.6717V66.7308H204.918V72.5126C204.918 73.1473 204.449 73.6165 204.132 73.8097C204.408 74.1408 204.794 74.8308 204.904 75.231ZM222.295 65.6268V75.3966H224.006V65.6268H222.295ZM219.784 68.3867H226.642V69.325H219.784V68.3867ZM219.784 66.1926H226.642V67.1309H219.784V66.1926ZM218.169 64.8403V70.6911H228.339V64.8403H218.169ZM216.941 71.6018V73.1335H229.457V71.6018H216.941ZM219.259 63.1844C219.784 63.8192 220.377 64.7023 220.612 65.2543L222.129 64.5505C221.853 63.971 221.219 63.1292 220.694 62.5359L219.259 63.1844ZM225.703 62.5773C225.4 63.3638 224.82 64.3987 224.337 65.0749L225.8 65.5855C226.297 64.9783 226.959 64.04 227.539 63.1154L225.703 62.5773Z" fill="#8DA2AD"/>
<path d="M0 43H122.713L138.976 70.598L122.713 98.1961H0V43Z" fill="white"/>
<path d="M0 42.0144H-0.985645V43V98.1961V99.1817H0H122.713H123.276L123.562 98.6965L139.825 71.0985L140.12 70.598L139.825 70.0976L123.562 42.4996L123.276 42.0144H122.713H0Z" stroke="#A4B6C0" stroke-opacity="0.3" stroke-width="1.97129"/>
<path d="M37.9462 74.196C37.3391 74.196 37.0355 73.9017 37.0355 73.3129C37.0355 72.7333 37.3391 72.4436 37.9462 72.4436H39.3399V66.8412L38.3326 67.4483C38.0658 67.6047 37.8266 67.6461 37.6151 67.5725C37.4035 67.4989 37.2425 67.3609 37.1321 67.1585C37.0217 66.9562 36.9895 66.74 37.0355 66.51C37.0815 66.2708 37.2333 66.0684 37.4909 65.9028L39.4089 64.7437C39.6021 64.6241 39.7953 64.5275 39.9885 64.4539C40.1909 64.3803 40.3887 64.3435 40.5818 64.3435C40.8578 64.3435 41.074 64.4171 41.2304 64.5643C41.396 64.7115 41.4788 64.9277 41.4788 65.2129V72.4436H42.7345C43.3325 72.4436 43.6314 72.7333 43.6314 73.3129C43.6314 73.9017 43.3325 74.196 42.7345 74.196H37.9462ZM46.0586 74.265C45.6906 74.265 45.3963 74.1546 45.1755 73.9339C44.9639 73.7131 44.8581 73.4279 44.8581 73.0783C44.8581 72.7379 44.9639 72.462 45.1755 72.2504C45.3963 72.0296 45.6906 71.9192 46.0586 71.9192C46.4266 71.9192 46.7118 72.0296 46.9142 72.2504C47.1257 72.462 47.2315 72.7379 47.2315 73.0783C47.2315 73.4279 47.1257 73.7131 46.9142 73.9339C46.7118 74.1546 46.4266 74.265 46.0586 74.265ZM56.4442 67.2137V68.635H65.317V67.2137H56.4442ZM58.1001 64.2056V65.5993H64.7374V64.2056H58.1001ZM60.2252 62.5497V67.7519H61.8672V62.5497H60.2252ZM57.8931 62.9084C57.5757 64.109 56.9962 65.3095 56.2372 66.0684C56.6236 66.2616 57.286 66.7032 57.6033 66.9516C58.3485 66.0684 59.066 64.6609 59.4662 63.2396L57.8931 62.9084ZM61.2877 68.0555V71.0775C61.2877 72.5264 61.5637 73.0231 62.8884 73.0231C63.1368 73.0231 63.6611 73.0231 63.9233 73.0231C64.9444 73.0231 65.3584 72.5402 65.5102 70.6911C65.0686 70.5807 64.3787 70.3323 64.0751 70.0563C64.0337 71.3258 63.9785 71.4914 63.7439 71.4914C63.6335 71.4914 63.2609 71.4914 63.1782 71.4914C62.9436 71.4914 62.916 71.45 62.916 71.0637V68.0555H61.2877ZM58.8039 68.0003C58.6383 69.6562 58.3071 70.9809 56.1682 71.7536C56.527 72.071 56.9824 72.692 57.1618 73.1197C59.7146 72.0572 60.2528 70.2495 60.4597 68.0003H58.8039ZM52.6771 63.8054C53.4498 64.4815 54.3606 65.4337 54.7469 66.1098L56.1131 65.0611C55.6715 64.4125 54.7193 63.5018 53.9466 62.8808L52.6771 63.8054ZM55.8233 67.8071H52.7047V69.3388H54.2364V73.0507H55.8233V67.8071ZM55.6715 72.4298C54.7883 72.4298 53.574 73.1749 52.5253 74.1408L53.6154 75.5759C54.3606 74.7204 55.1195 73.9063 55.6301 73.9063C55.9337 73.9063 56.3752 74.3064 56.941 74.6514C57.8655 75.1758 58.9556 75.3552 60.5977 75.3552C61.95 75.3552 64.0199 75.2724 65.041 75.2034C65.0548 74.7618 65.317 73.9477 65.4964 73.5061C64.1579 73.6993 62.019 73.8097 60.6391 73.8097C59.204 73.8097 58.0173 73.7407 57.148 73.2025C56.4442 72.7885 56.0993 72.4298 55.6715 72.4298ZM66.4249 69.4492L66.7836 71.0361C68.0807 70.6773 69.709 70.2081 71.2407 69.7528L71.0337 68.2625C69.3503 68.7178 67.6116 69.187 66.4249 69.4492ZM66.618 65.0749V66.5928H71.2545V65.0749H66.618ZM68.1773 62.4945V73.6579C68.1773 73.8373 68.1221 73.8925 67.9566 73.8925C67.791 73.9063 67.2804 73.9063 66.8112 73.8787C67.0044 74.334 67.1976 75.0102 67.2528 75.438C68.1635 75.438 68.7845 75.3966 69.2261 75.1344C69.6538 74.8722 69.7918 74.4444 69.7918 73.6717V62.4945H68.1773ZM71.5995 63.0326V64.4953H77.5883V63.0326H71.5995ZM77.2847 63.0326V63.2672C76.305 65.4199 73.6142 67.1033 70.8406 67.8071C71.1441 68.1245 71.5305 68.7316 71.6961 69.1318C74.6767 68.1935 77.5193 66.3306 78.8164 63.5018L77.8229 62.9774L77.5607 63.0326H77.2847ZM73.5314 63.764L72.2619 64.2056C73.5728 66.6342 75.7944 68.3591 78.6784 69.1456C78.8992 68.7316 79.3546 68.0969 79.6857 67.7657C76.8845 67.1723 74.6353 65.7096 73.5314 63.764ZM71.7651 69.5458V70.9947H78.4714V69.5458H71.7651ZM71.0751 71.9468V73.4233H79.3546V71.9468H71.0751ZM74.3317 68.4694V75.4518H76.0014V68.4694H74.3317ZM88.3279 67.2965V68.8834H92.164V67.2965H88.3279ZM87.5275 67.2965V73.0645C87.5275 74.7756 88.0105 75.2586 89.5422 75.2586C89.8596 75.2586 91.1429 75.2586 91.474 75.2586C92.9229 75.2586 93.3507 74.5548 93.5301 72.209C93.0885 72.0986 92.3848 71.8088 92.026 71.5328C91.957 73.3819 91.8604 73.7131 91.336 73.7131C91.0463 73.7131 90.0251 73.7131 89.7906 73.7131C89.2524 73.7131 89.1696 73.6303 89.1696 73.0507V67.2965H87.5275ZM87.4723 63.1154V64.7023H91.3912V69.739H92.9919V63.1154H87.4723ZM80.904 65.5579V75.3552H82.1735V66.924H85.3887V75.162H86.6996V65.5579H80.904ZM81.5939 71.1051V72.2504H86.0096V71.1051H81.5939ZM81.5939 73.2025V74.4858H86.0096V73.2025H81.5939ZM80.6556 62.9774V64.4401H86.9756V62.9774H80.6556ZM82.5047 63.3086V66.6342H83.5948V63.3086H82.5047ZM84.1468 63.3086V66.6342H85.2507V63.3086H84.1468ZM82.7807 66.6204V68.0003C82.7807 68.6488 82.7117 69.4078 82.1459 70.0149C82.3253 70.1115 82.6289 70.3875 82.7531 70.5393C83.4016 69.8218 83.5396 68.8006 83.5396 68.0141V66.6204H82.7807ZM84.0088 66.6204V69.1732C84.0088 69.9873 84.1882 70.1667 84.7953 70.1667C84.9057 70.1667 85.1541 70.1667 85.2645 70.1667C85.6922 70.1667 85.9268 70.0149 86.0234 69.6286C85.7888 69.5596 85.4715 69.4492 85.3197 69.3112C85.2921 69.3526 85.2645 69.3664 85.1265 69.3664C85.0851 69.3664 84.9333 69.3664 84.8919 69.3664C84.7953 69.3664 84.7815 69.3388 84.7815 69.1594V66.6204H84.0088ZM98.4327 67.7105V69.187H107.264V67.7105H98.4327ZM98.9157 64.9231V66.372H106.795V64.9231H98.9157ZM101.841 65.6268V67.8209C101.841 69.1042 101.551 70.8705 98.4327 72.002C98.8191 72.2918 99.3296 72.8575 99.5366 73.2025C102.821 71.7812 103.497 69.601 103.497 67.8485V65.6268H101.841ZM103.745 68.7592L102.352 69.049C103.028 71.1327 104.214 72.554 106.257 73.2301C106.478 72.8023 106.933 72.1676 107.292 71.8364C105.47 71.3672 104.297 70.2909 103.745 68.7592ZM97.8945 67.8623H94.6656V69.394H96.28V72.9403H97.8945V67.8623ZM97.8945 72.2228H96.3766C95.7419 72.7195 94.9967 73.2025 94.3758 73.5889L95.1899 75.3138C95.9351 74.7066 96.556 74.1822 97.1632 73.6441C98.0601 74.7204 99.2054 75.1206 100.903 75.1896C102.559 75.2586 105.346 75.231 107.016 75.1482C107.085 74.6514 107.361 73.8511 107.54 73.4647C105.677 73.6165 102.545 73.6579 100.93 73.5889C99.4952 73.5337 98.4465 73.1335 97.8945 72.2228ZM94.6931 63.7916C95.5073 64.4125 96.5008 65.3371 96.9148 65.9856L98.2395 64.8955C97.7703 64.2469 96.7492 63.3776 95.9213 62.7981L94.6931 63.7916ZM104.684 62.4669C104.435 63.143 103.938 64.0538 103.538 64.6609L104.891 65.1439C105.332 64.6057 105.87 63.7916 106.381 62.9912L104.684 62.4669ZM99.2744 63.074C99.7574 63.7502 100.24 64.6609 100.392 65.2543L101.896 64.6057C101.703 63.9986 101.192 63.1292 100.682 62.5083L99.2744 63.074Z" fill="#8DA2AD"/>
</g>
<defs>
<linearGradient id="paint0_linear_317_261" x1="137.005" y1="42.9999" x2="137.005" y2="9.7514" gradientUnits="userSpaceOnUse">
<stop stop-color="#F6F9FC"/>
<stop offset="1" stop-color="#F6F9FC" stop-opacity="0"/>
</linearGradient>
</defs>
</svg>
