<svg width="291" height="64" viewBox="0 0 291 64" fill="none" xmlns="http://www.w3.org/2000/svg">
<rect width="291" height="64" rx="10" fill="#E0E9EF"/>
<rect x="10" y="6" width="52" height="52" rx="10" fill="white"/>
<path d="M89.1338 23.4624H91.3237C91.2798 24.1802 91.082 24.8174 90.7305 25.374C90.3838 25.9307 89.8979 26.3652 89.2729 26.6777C88.6528 26.9902 87.9058 27.1465 87.0317 27.1465C86.3481 27.1465 85.7354 27.0293 85.1934 26.7949C84.6514 26.5557 84.1875 26.2139 83.8018 25.7695C83.4209 25.3252 83.1304 24.7881 82.9302 24.1582C82.73 23.5283 82.6299 22.8228 82.6299 22.0415V21.3018C82.6299 20.5205 82.7324 19.8149 82.9375 19.1851C83.1475 18.5503 83.4453 18.0107 83.8311 17.5664C84.2217 17.1221 84.688 16.7803 85.23 16.541C85.772 16.3018 86.3774 16.1821 87.0464 16.1821C87.9351 16.1821 88.6846 16.3433 89.2949 16.6655C89.9102 16.9878 90.3862 17.4321 90.7231 17.9985C91.0649 18.5649 91.27 19.2095 91.3384 19.9321H89.1411C89.1167 19.5024 89.0312 19.1387 88.8848 18.8408C88.7383 18.5381 88.5161 18.311 88.2183 18.1597C87.9253 18.0034 87.5347 17.9253 87.0464 17.9253C86.6802 17.9253 86.3604 17.9937 86.0869 18.1304C85.8135 18.2671 85.584 18.4746 85.3984 18.7529C85.2129 19.0312 85.0737 19.3828 84.981 19.8076C84.8931 20.2275 84.8491 20.7207 84.8491 21.2871V22.0415C84.8491 22.5933 84.8906 23.0791 84.9736 23.499C85.0566 23.9141 85.1836 24.2656 85.3545 24.5537C85.5303 24.8369 85.7549 25.0518 86.0283 25.1982C86.3066 25.3398 86.6411 25.4106 87.0317 25.4106C87.4907 25.4106 87.8691 25.3374 88.167 25.1909C88.4648 25.0444 88.6919 24.8271 88.8481 24.5391C89.0093 24.251 89.1045 23.8921 89.1338 23.4624ZM97.3223 25.103V19.0752H99.4316V27H97.4468L97.3223 25.103ZM97.5566 23.4771L98.1792 23.4624C98.1792 23.9897 98.1182 24.4805 97.9961 24.9346C97.874 25.3838 97.6909 25.7744 97.4468 26.1064C97.2026 26.4336 96.895 26.6899 96.5239 26.8755C96.1528 27.0562 95.7158 27.1465 95.2129 27.1465C94.8271 27.1465 94.4707 27.0928 94.1436 26.9854C93.8213 26.873 93.543 26.6997 93.3086 26.4653C93.0791 26.2261 92.8984 25.9209 92.7666 25.5498C92.6396 25.1738 92.5762 24.7222 92.5762 24.1948V19.0752H94.6855V24.2095C94.6855 24.4438 94.7124 24.6416 94.7661 24.8027C94.8247 24.9639 94.9053 25.0957 95.0078 25.1982C95.1104 25.3008 95.23 25.374 95.3667 25.418C95.5083 25.4619 95.6646 25.4839 95.8354 25.4839C96.27 25.4839 96.6118 25.396 96.8608 25.2202C97.1147 25.0444 97.293 24.8052 97.3955 24.5024C97.5029 24.1948 97.5566 23.853 97.5566 23.4771ZM105.328 24.8101C105.328 24.6587 105.284 24.522 105.196 24.3999C105.108 24.2778 104.944 24.1655 104.705 24.063C104.471 23.9556 104.131 23.8579 103.687 23.77C103.287 23.6821 102.913 23.5723 102.566 23.4404C102.225 23.3037 101.927 23.1401 101.673 22.9497C101.424 22.7593 101.229 22.5347 101.087 22.2759C100.945 22.0122 100.875 21.7119 100.875 21.375C100.875 21.043 100.945 20.7305 101.087 20.4375C101.233 20.1445 101.441 19.8857 101.709 19.6611C101.983 19.4316 102.315 19.2534 102.706 19.1265C103.101 18.9946 103.545 18.9287 104.039 18.9287C104.727 18.9287 105.318 19.0386 105.811 19.2583C106.309 19.478 106.69 19.7808 106.954 20.1665C107.222 20.5474 107.356 20.9819 107.356 21.4702H105.247C105.247 21.2651 105.203 21.082 105.115 20.9209C105.032 20.7549 104.9 20.6255 104.72 20.5327C104.544 20.4351 104.314 20.3862 104.031 20.3862C103.797 20.3862 103.594 20.4277 103.423 20.5107C103.252 20.5889 103.121 20.6963 103.028 20.833C102.94 20.9648 102.896 21.1113 102.896 21.2725C102.896 21.3945 102.92 21.5044 102.969 21.6021C103.023 21.6948 103.108 21.7803 103.226 21.8584C103.343 21.9365 103.494 22.0098 103.68 22.0781C103.87 22.1416 104.104 22.2002 104.383 22.2539C104.954 22.3711 105.464 22.5249 105.914 22.7153C106.363 22.9009 106.719 23.1548 106.983 23.4771C107.247 23.7944 107.378 24.2119 107.378 24.7295C107.378 25.0811 107.3 25.4033 107.144 25.6963C106.988 25.9893 106.763 26.2456 106.47 26.4653C106.177 26.6802 105.826 26.8486 105.416 26.9707C105.01 27.0879 104.554 27.1465 104.046 27.1465C103.309 27.1465 102.684 27.0146 102.171 26.751C101.663 26.4873 101.277 26.1528 101.014 25.7476C100.755 25.3374 100.625 24.9175 100.625 24.4878H102.625C102.635 24.7759 102.708 25.0078 102.845 25.1836C102.986 25.3594 103.165 25.4863 103.379 25.5645C103.599 25.6426 103.836 25.6816 104.09 25.6816C104.363 25.6816 104.59 25.645 104.771 25.5718C104.952 25.4937 105.088 25.3911 105.181 25.2642C105.279 25.1323 105.328 24.981 105.328 24.8101ZM112.63 19.0752V20.5693H108.016V19.0752H112.63ZM109.158 17.1196H111.268V24.6123C111.268 24.8418 111.297 25.0176 111.355 25.1396C111.419 25.2617 111.512 25.3472 111.634 25.396C111.756 25.4399 111.91 25.4619 112.095 25.4619C112.227 25.4619 112.344 25.457 112.447 25.4473C112.554 25.4326 112.645 25.418 112.718 25.4033L112.725 26.9561C112.544 27.0146 112.349 27.061 112.139 27.0952C111.929 27.1294 111.697 27.1465 111.443 27.1465C110.979 27.1465 110.574 27.0708 110.228 26.9194C109.886 26.7632 109.622 26.5142 109.437 26.1724C109.251 25.8306 109.158 25.3813 109.158 24.8247V17.1196ZM113.304 23.1182V22.9644C113.304 22.3833 113.387 21.8486 113.553 21.3604C113.719 20.8672 113.96 20.4399 114.278 20.0786C114.595 19.7173 114.986 19.4365 115.45 19.2363C115.914 19.0312 116.446 18.9287 117.046 18.9287C117.647 18.9287 118.182 19.0312 118.65 19.2363C119.119 19.4365 119.512 19.7173 119.83 20.0786C120.152 20.4399 120.396 20.8672 120.562 21.3604C120.728 21.8486 120.811 22.3833 120.811 22.9644V23.1182C120.811 23.6943 120.728 24.229 120.562 24.7222C120.396 25.2104 120.152 25.6377 119.83 26.0039C119.512 26.3652 119.122 26.646 118.658 26.8462C118.194 27.0464 117.662 27.1465 117.061 27.1465C116.46 27.1465 115.926 27.0464 115.457 26.8462C114.993 26.646 114.6 26.3652 114.278 26.0039C113.96 25.6377 113.719 25.2104 113.553 24.7222C113.387 24.229 113.304 23.6943 113.304 23.1182ZM115.413 22.9644V23.1182C115.413 23.4502 115.442 23.7603 115.501 24.0483C115.56 24.3364 115.652 24.5903 115.779 24.8101C115.911 25.0249 116.082 25.1934 116.292 25.3154C116.502 25.4375 116.758 25.4985 117.061 25.4985C117.354 25.4985 117.605 25.4375 117.815 25.3154C118.025 25.1934 118.194 25.0249 118.321 24.8101C118.448 24.5903 118.541 24.3364 118.599 24.0483C118.663 23.7603 118.694 23.4502 118.694 23.1182V22.9644C118.694 22.6421 118.663 22.3394 118.599 22.0562C118.541 21.7681 118.445 21.5142 118.313 21.2944C118.187 21.0698 118.018 20.894 117.808 20.7671C117.598 20.6401 117.344 20.5767 117.046 20.5767C116.749 20.5767 116.495 20.6401 116.285 20.7671C116.08 20.894 115.911 21.0698 115.779 21.2944C115.652 21.5142 115.56 21.7681 115.501 22.0562C115.442 22.3394 115.413 22.6421 115.413 22.9644ZM124.217 20.7158V27H122.1V19.0752H124.085L124.217 20.7158ZM123.924 22.7593H123.338C123.338 22.2075 123.404 21.6997 123.536 21.2358C123.672 20.7671 123.87 20.3618 124.129 20.02C124.393 19.6733 124.717 19.4048 125.103 19.2144C125.489 19.0239 125.936 18.9287 126.443 18.9287C126.795 18.9287 127.117 18.9824 127.41 19.0898C127.703 19.1924 127.955 19.356 128.165 19.5806C128.379 19.8003 128.545 20.0884 128.663 20.4448C128.78 20.7964 128.838 21.2188 128.838 21.7119V27H126.729V21.9463C126.729 21.585 126.68 21.3066 126.583 21.1113C126.485 20.916 126.346 20.7793 126.165 20.7012C125.989 20.623 125.777 20.584 125.528 20.584C125.254 20.584 125.015 20.6401 124.81 20.7524C124.61 20.8647 124.444 21.021 124.312 21.2212C124.18 21.4165 124.083 21.646 124.019 21.9097C123.956 22.1733 123.924 22.4565 123.924 22.7593ZM128.641 22.5176L127.886 22.6128C127.886 22.0952 127.95 21.6143 128.077 21.1699C128.208 20.7256 128.401 20.335 128.655 19.998C128.914 19.6611 129.234 19.3999 129.615 19.2144C129.996 19.0239 130.435 18.9287 130.933 18.9287C131.314 18.9287 131.661 18.9849 131.973 19.0972C132.286 19.2046 132.552 19.3779 132.771 19.6172C132.996 19.8516 133.167 20.1592 133.284 20.54C133.406 20.9209 133.467 21.3872 133.467 21.939V27H131.351V21.939C131.351 21.5728 131.302 21.2944 131.204 21.104C131.111 20.9087 130.975 20.7744 130.794 20.7012C130.618 20.623 130.408 20.584 130.164 20.584C129.91 20.584 129.688 20.6353 129.498 20.7378C129.307 20.8354 129.148 20.9722 129.021 21.1479C128.895 21.3237 128.799 21.5288 128.736 21.7632C128.672 21.9927 128.641 22.2441 128.641 22.5176ZM143.516 25.2715V15.75H145.64V27H143.729L143.516 25.2715ZM138.506 23.1328V22.979C138.506 22.3735 138.575 21.8242 138.711 21.3311C138.848 20.833 139.048 20.4058 139.312 20.0493C139.576 19.6929 139.9 19.417 140.286 19.2217C140.672 19.0264 141.111 18.9287 141.604 18.9287C142.068 18.9287 142.474 19.0264 142.82 19.2217C143.172 19.417 143.47 19.6953 143.714 20.0566C143.963 20.4131 144.163 20.8354 144.314 21.3237C144.466 21.8071 144.576 22.3369 144.644 22.9131V23.25C144.576 23.8018 144.466 24.3145 144.314 24.7881C144.163 25.2617 143.963 25.6768 143.714 26.0332C143.47 26.3848 143.172 26.6582 142.82 26.8535C142.469 27.0488 142.059 27.1465 141.59 27.1465C141.097 27.1465 140.657 27.0464 140.271 26.8462C139.891 26.646 139.568 26.3652 139.305 26.0039C139.046 25.6426 138.848 25.2178 138.711 24.7295C138.575 24.2412 138.506 23.709 138.506 23.1328ZM140.616 22.979V23.1328C140.616 23.46 140.64 23.7651 140.689 24.0483C140.743 24.3315 140.828 24.583 140.945 24.8027C141.067 25.0176 141.224 25.186 141.414 25.3081C141.609 25.4253 141.846 25.4839 142.125 25.4839C142.486 25.4839 142.784 25.4033 143.018 25.2422C143.252 25.0762 143.431 24.8491 143.553 24.561C143.68 24.2729 143.753 23.9409 143.772 23.5649V22.6055C143.758 22.2979 143.714 22.022 143.641 21.7778C143.572 21.5288 143.47 21.3164 143.333 21.1406C143.201 20.9648 143.035 20.8281 142.835 20.7305C142.64 20.6328 142.408 20.584 142.139 20.584C141.866 20.584 141.631 20.6475 141.436 20.7744C141.241 20.8965 141.082 21.0649 140.96 21.2798C140.843 21.4946 140.755 21.7485 140.696 22.0415C140.643 22.3296 140.616 22.6421 140.616 22.979ZM149.515 19.0752V27H147.398V19.0752H149.515ZM147.266 17.0098C147.266 16.7021 147.374 16.4482 147.588 16.248C147.803 16.0479 148.091 15.9478 148.453 15.9478C148.809 15.9478 149.095 16.0479 149.31 16.248C149.529 16.4482 149.639 16.7021 149.639 17.0098C149.639 17.3174 149.529 17.5713 149.31 17.7715C149.095 17.9717 148.809 18.0718 148.453 18.0718C148.091 18.0718 147.803 17.9717 147.588 17.7715C147.374 17.5713 147.266 17.3174 147.266 17.0098ZM155.542 24.8101C155.542 24.6587 155.499 24.522 155.411 24.3999C155.323 24.2778 155.159 24.1655 154.92 24.063C154.686 23.9556 154.346 23.8579 153.902 23.77C153.501 23.6821 153.128 23.5723 152.781 23.4404C152.439 23.3037 152.142 23.1401 151.888 22.9497C151.639 22.7593 151.443 22.5347 151.302 22.2759C151.16 22.0122 151.089 21.7119 151.089 21.375C151.089 21.043 151.16 20.7305 151.302 20.4375C151.448 20.1445 151.656 19.8857 151.924 19.6611C152.198 19.4316 152.53 19.2534 152.92 19.1265C153.316 18.9946 153.76 18.9287 154.253 18.9287C154.942 18.9287 155.533 19.0386 156.026 19.2583C156.524 19.478 156.905 19.7808 157.168 20.1665C157.437 20.5474 157.571 20.9819 157.571 21.4702H155.462C155.462 21.2651 155.418 21.082 155.33 20.9209C155.247 20.7549 155.115 20.6255 154.935 20.5327C154.759 20.4351 154.529 20.3862 154.246 20.3862C154.012 20.3862 153.809 20.4277 153.638 20.5107C153.467 20.5889 153.335 20.6963 153.243 20.833C153.155 20.9648 153.111 21.1113 153.111 21.2725C153.111 21.3945 153.135 21.5044 153.184 21.6021C153.238 21.6948 153.323 21.7803 153.44 21.8584C153.558 21.9365 153.709 22.0098 153.895 22.0781C154.085 22.1416 154.319 22.2002 154.598 22.2539C155.169 22.3711 155.679 22.5249 156.128 22.7153C156.578 22.9009 156.934 23.1548 157.198 23.4771C157.461 23.7944 157.593 24.2119 157.593 24.7295C157.593 25.0811 157.515 25.4033 157.359 25.6963C157.203 25.9893 156.978 26.2456 156.685 26.4653C156.392 26.6802 156.041 26.8486 155.63 26.9707C155.225 27.0879 154.769 27.1465 154.261 27.1465C153.523 27.1465 152.898 27.0146 152.386 26.751C151.878 26.4873 151.492 26.1528 151.229 25.7476C150.97 25.3374 150.84 24.9175 150.84 24.4878H152.84C152.85 24.7759 152.923 25.0078 153.06 25.1836C153.201 25.3594 153.379 25.4863 153.594 25.5645C153.814 25.6426 154.051 25.6816 154.305 25.6816C154.578 25.6816 154.805 25.645 154.986 25.5718C155.167 25.4937 155.303 25.3911 155.396 25.2642C155.494 25.1323 155.542 24.981 155.542 24.8101ZM162.845 19.0752V20.5693H158.23V19.0752H162.845ZM159.373 17.1196H161.482V24.6123C161.482 24.8418 161.512 25.0176 161.57 25.1396C161.634 25.2617 161.727 25.3472 161.849 25.396C161.971 25.4399 162.125 25.4619 162.31 25.4619C162.442 25.4619 162.559 25.457 162.662 25.4473C162.769 25.4326 162.859 25.418 162.933 25.4033L162.94 26.9561C162.759 27.0146 162.564 27.061 162.354 27.0952C162.144 27.1294 161.912 27.1465 161.658 27.1465C161.194 27.1465 160.789 27.0708 160.442 26.9194C160.101 26.7632 159.837 26.5142 159.651 26.1724C159.466 25.8306 159.373 25.3813 159.373 24.8247V17.1196ZM166.155 20.8037V27H164.046V19.0752H166.031L166.155 20.8037ZM168.543 19.0239L168.506 20.9795C168.404 20.9648 168.279 20.9526 168.133 20.9429C167.991 20.9282 167.862 20.9209 167.745 20.9209C167.447 20.9209 167.188 20.96 166.968 21.0381C166.753 21.1113 166.573 21.2212 166.426 21.3677C166.285 21.5142 166.177 21.6924 166.104 21.9023C166.036 22.1123 165.997 22.3516 165.987 22.6201L165.562 22.4883C165.562 21.9756 165.613 21.5044 165.716 21.0747C165.818 20.6401 165.967 20.2617 166.163 19.9395C166.363 19.6172 166.607 19.3682 166.895 19.1924C167.183 19.0166 167.513 18.9287 167.884 18.9287C168.001 18.9287 168.121 18.9385 168.243 18.958C168.365 18.9727 168.465 18.9946 168.543 19.0239ZM171.766 19.0752V27H169.649V19.0752H171.766ZM169.517 17.0098C169.517 16.7021 169.625 16.4482 169.839 16.248C170.054 16.0479 170.342 15.9478 170.704 15.9478C171.06 15.9478 171.346 16.0479 171.561 16.248C171.78 16.4482 171.89 16.7021 171.89 17.0098C171.89 17.3174 171.78 17.5713 171.561 17.7715C171.346 17.9717 171.06 18.0718 170.704 18.0718C170.342 18.0718 170.054 17.9717 169.839 17.7715C169.625 17.5713 169.517 17.3174 169.517 17.0098ZM173.509 15.75H175.618V25.1836L175.406 27H173.509V15.75ZM180.635 22.957V23.1108C180.635 23.7017 180.572 24.2437 180.445 24.7368C180.323 25.23 180.132 25.6572 179.874 26.0186C179.615 26.375 179.292 26.6533 178.907 26.8535C178.526 27.0488 178.077 27.1465 177.559 27.1465C177.076 27.1465 176.656 27.0488 176.299 26.8535C175.948 26.6582 175.652 26.3823 175.413 26.0259C175.174 25.6694 174.981 25.252 174.834 24.7734C174.688 24.2949 174.578 23.7725 174.505 23.2061V22.8691C174.578 22.3027 174.688 21.7803 174.834 21.3018C174.981 20.8232 175.174 20.4058 175.413 20.0493C175.652 19.6929 175.948 19.417 176.299 19.2217C176.651 19.0264 177.066 18.9287 177.544 18.9287C178.067 18.9287 178.521 19.0288 178.907 19.229C179.297 19.4243 179.62 19.7026 179.874 20.064C180.132 20.4204 180.323 20.8452 180.445 21.3384C180.572 21.8267 180.635 22.3662 180.635 22.957ZM178.526 23.1108V22.957C178.526 22.6348 178.501 22.332 178.453 22.0488C178.409 21.7607 178.331 21.5093 178.218 21.2944C178.106 21.0747 177.952 20.9014 177.757 20.7744C177.566 20.6475 177.32 20.584 177.017 20.584C176.729 20.584 176.485 20.6328 176.285 20.7305C176.084 20.8281 175.918 20.9648 175.787 21.1406C175.66 21.3164 175.564 21.5264 175.501 21.7705C175.438 22.0098 175.398 22.2734 175.384 22.5615V23.521C175.398 23.9067 175.462 24.2485 175.574 24.5464C175.691 24.8394 175.867 25.0713 176.102 25.2422C176.341 25.4082 176.651 25.4912 177.032 25.4912C177.33 25.4912 177.576 25.4326 177.771 25.3154C177.967 25.1982 178.118 25.0322 178.226 24.8174C178.338 24.6025 178.416 24.3511 178.46 24.063C178.504 23.77 178.526 23.4526 178.526 23.1108ZM186.634 25.103V19.0752H188.743V27H186.758L186.634 25.103ZM186.868 23.4771L187.491 23.4624C187.491 23.9897 187.43 24.4805 187.308 24.9346C187.186 25.3838 187.002 25.7744 186.758 26.1064C186.514 26.4336 186.207 26.6899 185.835 26.8755C185.464 27.0562 185.027 27.1465 184.524 27.1465C184.139 27.1465 183.782 27.0928 183.455 26.9854C183.133 26.873 182.854 26.6997 182.62 26.4653C182.391 26.2261 182.21 25.9209 182.078 25.5498C181.951 25.1738 181.888 24.7222 181.888 24.1948V19.0752H183.997V24.2095C183.997 24.4438 184.024 24.6416 184.078 24.8027C184.136 24.9639 184.217 25.0957 184.319 25.1982C184.422 25.3008 184.542 25.374 184.678 25.418C184.82 25.4619 184.976 25.4839 185.147 25.4839C185.582 25.4839 185.923 25.396 186.172 25.2202C186.426 25.0444 186.604 24.8052 186.707 24.5024C186.814 24.1948 186.868 23.853 186.868 23.4771ZM194.236 19.0752V20.5693H189.622V19.0752H194.236ZM190.765 17.1196H192.874V24.6123C192.874 24.8418 192.903 25.0176 192.962 25.1396C193.025 25.2617 193.118 25.3472 193.24 25.396C193.362 25.4399 193.516 25.4619 193.702 25.4619C193.833 25.4619 193.951 25.457 194.053 25.4473C194.161 25.4326 194.251 25.418 194.324 25.4033L194.332 26.9561C194.151 27.0146 193.956 27.061 193.746 27.0952C193.536 27.1294 193.304 27.1465 193.05 27.1465C192.586 27.1465 192.181 27.0708 191.834 26.9194C191.492 26.7632 191.229 26.5142 191.043 26.1724C190.857 25.8306 190.765 25.3813 190.765 24.8247V17.1196ZM197.664 19.0752V27H195.547V19.0752H197.664ZM195.416 17.0098C195.416 16.7021 195.523 16.4482 195.738 16.248C195.953 16.0479 196.241 15.9478 196.602 15.9478C196.958 15.9478 197.244 16.0479 197.459 16.248C197.679 16.4482 197.789 16.7021 197.789 17.0098C197.789 17.3174 197.679 17.5713 197.459 17.7715C197.244 17.9717 196.958 18.0718 196.602 18.0718C196.241 18.0718 195.953 17.9717 195.738 17.7715C195.523 17.5713 195.416 17.3174 195.416 17.0098ZM199.07 23.1182V22.9644C199.07 22.3833 199.153 21.8486 199.319 21.3604C199.485 20.8672 199.727 20.4399 200.044 20.0786C200.362 19.7173 200.752 19.4365 201.216 19.2363C201.68 19.0312 202.212 18.9287 202.813 18.9287C203.414 18.9287 203.948 19.0312 204.417 19.2363C204.886 19.4365 205.279 19.7173 205.596 20.0786C205.918 20.4399 206.163 20.8672 206.329 21.3604C206.495 21.8486 206.578 22.3833 206.578 22.9644V23.1182C206.578 23.6943 206.495 24.229 206.329 24.7222C206.163 25.2104 205.918 25.6377 205.596 26.0039C205.279 26.3652 204.888 26.646 204.424 26.8462C203.96 27.0464 203.428 27.1465 202.828 27.1465C202.227 27.1465 201.692 27.0464 201.224 26.8462C200.76 26.646 200.367 26.3652 200.044 26.0039C199.727 25.6377 199.485 25.2104 199.319 24.7222C199.153 24.229 199.07 23.6943 199.07 23.1182ZM201.18 22.9644V23.1182C201.18 23.4502 201.209 23.7603 201.268 24.0483C201.326 24.3364 201.419 24.5903 201.546 24.8101C201.678 25.0249 201.849 25.1934 202.059 25.3154C202.269 25.4375 202.525 25.4985 202.828 25.4985C203.121 25.4985 203.372 25.4375 203.582 25.3154C203.792 25.1934 203.96 25.0249 204.087 24.8101C204.214 24.5903 204.307 24.3364 204.366 24.0483C204.429 23.7603 204.461 23.4502 204.461 23.1182V22.9644C204.461 22.6421 204.429 22.3394 204.366 22.0562C204.307 21.7681 204.212 21.5142 204.08 21.2944C203.953 21.0698 203.785 20.894 203.575 20.7671C203.365 20.6401 203.111 20.5767 202.813 20.5767C202.515 20.5767 202.261 20.6401 202.051 20.7671C201.846 20.894 201.678 21.0698 201.546 21.2944C201.419 21.5142 201.326 21.7681 201.268 22.0562C201.209 22.3394 201.18 22.6421 201.18 22.9644ZM209.939 20.7671V27H207.83V19.0752H209.808L209.939 20.7671ZM209.632 22.7593H209.061C209.061 22.1733 209.136 21.646 209.288 21.1772C209.439 20.7036 209.651 20.3008 209.925 19.9688C210.198 19.6318 210.523 19.3755 210.899 19.1997C211.28 19.019 211.705 18.9287 212.173 18.9287C212.544 18.9287 212.884 18.9824 213.191 19.0898C213.499 19.1973 213.763 19.3682 213.982 19.6025C214.207 19.8369 214.378 20.147 214.495 20.5327C214.617 20.9185 214.678 21.3896 214.678 21.9463V27H212.554V21.939C212.554 21.5874 212.505 21.314 212.408 21.1187C212.31 20.9233 212.166 20.7866 211.976 20.7085C211.79 20.6255 211.561 20.584 211.287 20.584C211.004 20.584 210.757 20.6401 210.547 20.7524C210.342 20.8647 210.171 21.021 210.035 21.2212C209.903 21.4165 209.803 21.646 209.734 21.9097C209.666 22.1733 209.632 22.4565 209.632 22.7593Z" fill="black"/>
<path d="M84.532 41.592V42.456H91.528V41.592H84.532ZM87.988 44.46V45.312H92.032V44.46H87.988ZM87.508 42.036V47.988L88.444 48.108V42.036H87.508ZM84.664 43.488C84.4 45.66 83.752 47.376 82.408 48.42C82.624 48.552 83.008 48.864 83.152 49.02C84.508 47.844 85.264 46.008 85.6 43.584L84.664 43.488ZM85.228 45.036L84.496 45.312C85.528 48.24 87.484 48.804 90.34 48.804H93.16C93.196 48.54 93.352 48.108 93.496 47.892C92.908 47.904 90.832 47.904 90.388 47.904C87.952 47.904 86.08 47.484 85.228 45.036ZM87.496 37.932V39.876H88.444V37.932H87.496ZM82.984 39.3V41.916H83.872V40.164H92.092V41.916H93.016V39.3H82.984ZM102.112 39.024V45.672H102.952V39.024H102.112ZM104.248 38.052V47.724C104.248 47.928 104.188 47.976 103.996 47.988C103.78 47.988 103.108 47.988 102.4 47.964C102.52 48.252 102.652 48.66 102.7 48.924C103.588 48.924 104.248 48.9 104.608 48.744C104.98 48.576 105.124 48.312 105.124 47.712V38.052H104.248ZM97.468 37.968V48.96H98.32V37.968H97.468ZM99.988 43.788V47.076C99.988 47.196 99.952 47.232 99.832 47.232C99.688 47.244 99.304 47.244 98.788 47.232C98.908 47.46 99.016 47.784 99.04 48.012C99.712 48.024 100.168 48.012 100.456 47.868C100.756 47.724 100.816 47.496 100.816 47.088V43.788H99.988ZM95.08 43.788V47.976H95.896V44.604H100.324V43.788H95.08ZM94.528 41.748V42.576H101.248V41.748H94.528ZM95.692 39.66L95.524 40.488H100.768V39.66H95.692ZM95.704 38.208C95.452 39.372 95.032 40.572 94.492 41.388C94.708 41.46 95.104 41.616 95.284 41.712C95.788 40.896 96.256 39.624 96.544 38.376L95.704 38.208ZM113.092 42.24V43.104H116.704V42.24H113.092ZM112.684 42.24V47.448C112.684 48.564 113.02 48.84 114.124 48.84C114.364 48.84 115.888 48.84 116.14 48.84C117.244 48.84 117.496 48.288 117.616 46.332C117.364 46.272 116.98 46.116 116.776 45.948C116.716 47.676 116.62 47.988 116.092 47.988C115.744 47.988 114.472 47.988 114.22 47.988C113.668 47.988 113.572 47.904 113.572 47.448V42.24H112.684ZM112.636 38.472V39.336H116.284V43.92H117.16V38.472H112.636ZM106.972 40.596V48.912H107.704V41.364H111.04V48.756H111.784V40.596H106.972ZM107.344 45.432V46.104H111.388V45.432H107.344ZM107.344 47.364V48.096H111.388V47.364H107.344ZM106.684 38.388V39.204H112.048V38.388H106.684ZM108.412 38.616V41.148H109.06V38.616H108.412ZM109.756 38.616V41.148H110.416V38.616H109.756ZM108.532 41.136V42.312C108.532 42.96 108.412 43.752 107.704 44.364C107.824 44.424 108.028 44.604 108.112 44.712C108.856 44.028 109.036 43.068 109.036 42.324V41.136H108.532ZM109.696 41.136V43.632C109.696 44.22 109.84 44.328 110.32 44.328C110.416 44.328 110.824 44.328 110.908 44.328C111.244 44.328 111.412 44.22 111.472 43.968C111.316 43.92 111.112 43.86 110.992 43.764C110.98 43.8 110.944 43.8 110.812 43.8C110.74 43.8 110.428 43.8 110.368 43.8C110.236 43.8 110.212 43.776 110.212 43.632V41.136H109.696ZM121.816 42.684V43.512H129.388V42.684H121.816ZM122.2 40.212V41.016H129.028V40.212H122.2ZM125.032 40.584V42.372C125.032 43.608 124.816 45.372 121.9 46.548C122.104 46.704 122.38 47.016 122.5 47.208C125.524 45.852 125.932 43.884 125.932 42.384V40.584H125.032ZM126.184 43.212L125.404 43.38C125.932 45.336 127.024 46.632 128.836 47.268C128.956 47.028 129.208 46.68 129.412 46.5C127.696 46.008 126.64 44.892 126.184 43.212ZM121.132 42.66H118.576V43.5H120.256V46.908H121.132V42.66ZM121.132 46.512H120.316C119.704 47.028 118.996 47.556 118.42 47.94L118.9 48.864C119.548 48.336 120.16 47.82 120.736 47.304C121.504 48.252 122.584 48.672 124.144 48.732C125.476 48.78 127.96 48.756 129.28 48.708C129.316 48.432 129.472 48 129.568 47.784C128.152 47.88 125.452 47.916 124.144 47.868C122.764 47.808 121.696 47.4 121.132 46.512ZM118.708 38.76C119.488 39.288 120.388 40.104 120.772 40.68L121.48 40.092C121.072 39.504 120.16 38.724 119.368 38.22L118.708 38.76ZM127.456 37.92C127.204 38.532 126.712 39.396 126.34 39.936L127.072 40.212C127.468 39.708 127.96 38.916 128.368 38.232L127.456 37.92ZM122.668 38.28C123.136 38.88 123.58 39.708 123.736 40.248L124.552 39.888C124.384 39.336 123.916 38.544 123.436 37.968L122.668 38.28Z" fill="#979797"/>
<path d="M262.778 38.5564L270.556 30.7782L262.778 23" stroke="black" stroke-width="2" stroke-linecap="round"/>
<path d="M32.5832 37.0625L36.9582 38.5209C36.9582 38.5209 47.8957 36.3334 49.354 36.3334C50.8123 36.3334 50.8123 37.7917 49.354 39.25C47.8957 40.7084 42.7915 45.0834 38.4165 45.0834C34.0415 45.0834 31.1248 42.8959 28.2082 42.8959C25.2915 42.8959 20.9165 42.8959 20.9165 42.8959" stroke="black" stroke-width="4" stroke-linecap="round" stroke-linejoin="round"/>
<path d="M20.9165 34.1458C22.3748 32.6875 25.2915 30.5 28.2082 30.5C31.1248 30.5 38.0519 33.4167 39.1457 34.875C40.2394 36.3333 36.9582 38.5208 36.9582 38.5208" stroke="black" stroke-width="4" stroke-linecap="round" stroke-linejoin="round"/>
<path d="M29.6665 26.125V20.2917C29.6665 19.4863 30.3194 18.8334 31.1248 18.8334H48.6248C49.4303 18.8334 50.0832 19.4863 50.0832 20.2917V31.9584" stroke="black" stroke-width="4" stroke-linecap="round" stroke-linejoin="round"/>
<path d="M43.5207 18.8334H36.229V25.3959H43.5207V18.8334Z" fill="#2F88FF" stroke="black" stroke-width="4" stroke-linecap="round" stroke-linejoin="round"/>
</svg>
