<svg width="144" height="56" viewBox="0 0 144 56" fill="none" xmlns="http://www.w3.org/2000/svg">
<path d="M2.22021 0H124.933L141.196 27.598L124.933 55.1961H2.22021V0Z" fill="white"/>
<path d="M2.22021 -0.985645H1.23457V0V55.1961V56.1817H2.22021H124.933H125.496L125.782 55.6965L142.045 28.0985L142.34 27.598L142.045 27.0976L125.782 -0.500404L125.496 -0.985645H124.933H2.22021Z" stroke="#A4B6C0" stroke-opacity="0.3" stroke-width="1.97129"/>
<path d="M39.9043 31.196C39.5547 31.196 39.3017 31.1179 39.1453 30.9615C38.9889 30.7959 38.9107 30.5567 38.9107 30.2439C38.9107 30.0415 38.9613 29.8529 39.0625 29.6782C39.1637 29.5034 39.3017 29.324 39.4765 29.14L42.0707 26.4078C42.4571 25.9938 42.7331 25.6258 42.8987 25.3039C43.0734 24.9819 43.1608 24.6599 43.1608 24.3379C43.1608 23.51 42.6503 23.096 41.6291 23.096C41.3624 23.096 41.0864 23.1328 40.8012 23.2064C40.5252 23.28 40.2354 23.4088 39.9319 23.5928C39.6835 23.74 39.4535 23.7722 39.2419 23.6894C39.0395 23.6066 38.8877 23.464 38.7865 23.2616C38.6946 23.0592 38.6716 22.8476 38.7175 22.6268C38.7727 22.3969 38.9245 22.2083 39.1729 22.0611C39.5777 21.8127 40.0193 21.6287 40.4976 21.5091C40.976 21.3803 41.4498 21.3159 41.9189 21.3159C43.0044 21.3159 43.8324 21.5597 44.4027 22.0473C44.9823 22.5257 45.2721 23.211 45.2721 24.1033C45.2721 24.6921 45.1341 25.2579 44.8581 25.8006C44.5913 26.3342 44.1498 26.9137 43.5334 27.5393L41.6567 29.4436H44.8581C45.4561 29.4436 45.7551 29.7333 45.7551 30.3129C45.7551 30.9017 45.4561 31.196 44.8581 31.196H39.9043ZM48.2788 31.265C47.9109 31.265 47.6165 31.1546 47.3957 30.9339C47.1841 30.7131 47.0783 30.4279 47.0783 30.0783C47.0783 29.7379 47.1841 29.462 47.3957 29.2504C47.6165 29.0296 47.9109 28.9192 48.2788 28.9192C48.6468 28.9192 48.932 29.0296 49.1344 29.2504C49.346 29.462 49.4517 29.7379 49.4517 30.0783C49.4517 30.4279 49.346 30.7131 49.1344 30.9339C48.932 31.1546 48.6468 31.265 48.2788 31.265ZM54.8973 20.1844V21.6885H60.2237V20.1844H54.8973ZM56.567 24.3793V25.8282H58.3609V29.278H56.567V30.7269H59.8374V24.3793H56.567ZM56.5118 20.8744C56.222 23.4134 55.6701 25.842 54.5247 27.3599C54.8283 27.7187 55.2975 28.5328 55.4493 28.8916C56.8844 27.0287 57.6709 24.1309 58.0849 21.0952L56.5118 20.8744ZM55.877 24.3793V31.7756H57.3259V24.3793H55.877ZM61.4794 27.6635V29.071H66.4333V27.6635H61.4794ZM61.4932 25.4005V26.6562H66.4333V25.4005H61.4932ZM61.4932 23.0408V24.4345H66.4333V23.0408H61.4932ZM63.1491 23.6618V28.2982H64.5704V23.6618H63.1491ZM65.6743 23.0408V30.6717C65.6743 30.8649 65.6192 30.9201 65.426 30.9339C65.2328 30.9339 64.5428 30.9339 63.9495 30.9063C64.1565 31.3202 64.3772 31.9964 64.4186 32.4518C65.4122 32.4518 66.1159 32.4242 66.5989 32.162C67.1094 31.9274 67.2474 31.472 67.2474 30.6993V23.0408H65.6743ZM60.5687 23.0408V26.4216C60.5687 27.9947 60.4445 30.0369 59.2164 31.4582C59.5338 31.6376 60.1685 32.1896 60.4031 32.4932C61.8244 30.8787 62.0866 28.2845 62.0866 26.4354V23.0408H60.5687ZM61.8934 19.4669C61.4104 20.9986 60.5549 22.5165 59.5614 23.4686C59.9064 23.717 60.4997 24.2689 60.7481 24.5449C61.8106 23.4272 62.8041 21.6333 63.4113 19.8394L61.8934 19.4669ZM62.2246 20.6122L61.5622 21.9507H64.9016V20.6122H62.2246ZM64.391 20.6122V20.902C64.1841 21.5229 63.6735 22.5165 63.2319 23.1374C63.5631 23.3306 64.0599 23.6342 64.3496 23.855C64.9016 23.1788 65.6192 22.1025 66.0469 21.2607L64.9844 20.5432L64.7498 20.6122H64.391ZM76.6071 19.5359C76.5657 24.0206 76.7037 28.6294 73.2264 31.1822C73.6817 31.472 74.1923 31.9964 74.4683 32.4104C78.1664 29.5264 78.2354 24.4345 78.2906 19.5359H76.6071ZM78.1664 23.441L76.7037 23.5652C76.9245 25.2211 77.4075 30.0507 80.6226 32.438C80.8986 32.0102 81.354 31.5134 81.8231 31.196C78.746 29.0572 78.3044 24.8485 78.1664 23.441ZM69.9146 20.6812C70.6183 21.3435 71.6533 22.2957 72.1224 22.8476L73.2678 21.6609C72.7572 21.1228 71.6947 20.2534 71.0047 19.6463L69.9146 20.6812ZM70.9081 32.1896C71.1565 31.886 71.6119 31.4996 74.2199 29.5954C74.0681 29.278 73.8335 28.6294 73.7369 28.1879L70.9219 30.1611L70.5493 30.6855L70.9081 32.1896ZM68.8383 23.7308V25.3177H72.1086V23.7308H68.8383ZM70.9081 32.1896C70.9081 31.61 72.495 30.3819 72.495 30.3819V23.7308H70.8943V29.4988C70.8943 30.2301 70.4114 30.7821 70.0664 31.0443C70.3424 31.2926 70.7701 31.8584 70.9081 32.1896ZM83.5658 20.6674C84.3109 21.3573 85.3182 22.3371 85.7598 22.9718L86.9327 21.7851C86.4636 21.178 85.4148 20.2534 84.6697 19.6049L83.5658 20.6674ZM82.8896 23.7308V25.3177H86.1876V23.7308H82.8896ZM87.9539 20.5294V22.1991H95.6537V20.5294H87.9539ZM91.6244 21.0814V30.2853C91.6244 30.5337 91.5278 30.6165 91.2518 30.6303C90.962 30.6303 89.9409 30.6441 89.0578 30.5889C89.3338 31.0443 89.6511 31.8722 89.7339 32.3828C91.0172 32.3828 91.928 32.3276 92.5627 32.0516C93.1837 31.7618 93.3907 31.265 93.3907 30.3129V21.0814H91.6244ZM84.9043 32.231C85.1941 31.886 85.7322 31.4996 88.8232 29.4022C88.6576 29.0572 88.4506 28.3396 88.3678 27.8705L84.9595 30.0783L84.5455 30.6303L84.9043 32.231ZM84.9043 32.231C84.9043 31.6514 86.5188 30.6717 86.5188 30.6717V23.7308H84.9181V29.5126C84.9181 30.1473 84.4489 30.6165 84.1315 30.8097C84.4075 31.1408 84.7939 31.8308 84.9043 32.231ZM102.295 22.6268V32.3966H104.006V22.6268H102.295ZM99.7836 25.3867H106.642V26.325H99.7836V25.3867ZM99.7836 23.1926H106.642V24.1309H99.7836V23.1926ZM98.1691 21.8403V27.6911H108.339V21.8403H98.1691ZM96.941 28.6018V30.1335H109.457V28.6018H96.941ZM99.2592 20.1844C99.7836 20.8192 100.377 21.7023 100.612 22.2543L102.129 21.5505C101.853 20.971 101.219 20.1292 100.694 19.5359L99.2592 20.1844ZM105.703 19.5773C105.4 20.3638 104.82 21.3987 104.337 22.0749L105.8 22.5855C106.297 21.9783 106.959 21.04 107.539 20.1154L105.703 19.5773Z" fill="#8DA2AD"/>
</svg>
