<svg width="22" height="20" viewBox="0 0 22 20" fill="none" xmlns="http://www.w3.org/2000/svg">
<g clip-path="url(#clip0_223_504)">
<path d="M1.92969 9.16671H19.4323V16.6667C19.4323 16.8877 19.3401 17.0997 19.176 17.256C19.0119 17.4122 18.7893 17.5 18.5572 17.5H2.80482C2.57272 17.5 2.35013 17.4122 2.18601 17.256C2.02189 17.0997 1.92969 16.8877 1.92969 16.6667V9.16671ZM15.0566 2.50004H18.5572C18.7893 2.50004 19.0119 2.58784 19.176 2.74412C19.3401 2.9004 19.4323 3.11236 19.4323 3.33337V7.50004H1.92969V3.33337C1.92969 3.11236 2.02189 2.9004 2.18601 2.74412C2.35013 2.58784 2.57272 2.50004 2.80482 2.50004H6.30534V0.833374H8.0556V2.50004H13.3064V0.833374H15.0566V2.50004Z" fill="#9B9B9B"/>
</g>
<defs>
<clipPath id="clip0_223_504">
<rect width="21.0031" height="20" fill="white" transform="translate(0.179199)"/>
</clipPath>
</defs>
</svg>
