<svg width="30" height="30" viewBox="0 0 30 30" fill="none" xmlns="http://www.w3.org/2000/svg">
<path d="M29.0625 23.8125C29.0625 23.3437 28.6875 22.9219 28.1719 22.9219H1.82813C1.35938 22.9219 0.9375 23.2969 0.9375 23.8125V24.7031C0.9375 25.1719 1.3125 25.5937 1.82813 25.5937H28.1719C28.6406 25.5937 29.0625 25.2188 29.0625 24.7031V23.8125Z" fill="#B2C1C0"/>
<path d="M5.76563 29.0625C7.47426 29.0625 8.85938 27.6984 8.85938 26.0156C8.85938 24.3329 7.47426 22.9688 5.76563 22.9688C4.05699 22.9688 2.67188 24.3329 2.67188 26.0156C2.67188 27.6984 4.05699 29.0625 5.76563 29.0625Z" fill="#3E4347"/>
<path d="M5.76562 27.75C6.74938 27.75 7.54688 26.9735 7.54688 26.0156C7.54688 25.0578 6.74938 24.2812 5.76562 24.2812C4.78187 24.2812 3.98438 25.0578 3.98438 26.0156C3.98438 26.9735 4.78187 27.75 5.76562 27.75Z" fill="#B2C1C0"/>
<path d="M23.8125 29.0625C25.5211 29.0625 26.9062 27.6984 26.9062 26.0156C26.9062 24.3329 25.5211 22.9688 23.8125 22.9688C22.1039 22.9688 20.7188 24.3329 20.7188 26.0156C20.7188 27.6984 22.1039 29.0625 23.8125 29.0625Z" fill="#3E4347"/>
<path d="M23.8125 27.75C24.7963 27.75 25.5938 26.9735 25.5938 26.0156C25.5938 25.0578 24.7963 24.2812 23.8125 24.2812C22.8287 24.2812 22.0312 25.0578 22.0312 26.0156C22.0312 26.9735 22.8287 27.75 23.8125 27.75Z" fill="#B2C1C0"/>
<path d="M25.5469 8.90625H13.2188C11.7656 8.90625 10.5938 10.0781 10.5938 11.5313V22.9219H28.1719V11.5313C28.1719 10.0781 27 8.90625 25.5469 8.90625Z" fill="#62727A"/>
<path d="M7.07813 12.4219C4.96875 12.4219 4.45312 12.4219 4.45312 15.9375C4.45312 18.5625 1.82812 18.5625 1.82812 21.1875V22.9219H10.6406V12.4219H7.07813" fill="#F15744"/>
<path d="M2.71875 20.2969H3.60937V22.0313H2.71875V20.2969Z" fill="#FFCE31"/>
<path d="M6.00018 18.5625C5.48455 18.5625 5.2033 18.9375 5.3908 19.4063L6.1408 21.2813C6.3283 21.75 6.8908 22.0781 7.40643 22.0781H8.81268C9.3283 22.0781 9.75018 21.7031 9.75018 21.1875V19.4531C9.75018 18.9844 9.3283 18.5625 8.81268 18.5625H6.00018Z" fill="#D33B23"/>
<path d="M9.75 13.2656H6.23438C6.23438 13.2656 5.34375 13.3594 5.34375 14.5781V16.6875C5.34375 16.6875 5.34375 17.6719 6.23438 17.6719H9.75V13.2656" fill="#3E4347"/>
<path d="M5.76563 24.6562C5.99862 24.6562 6.1875 24.4674 6.1875 24.2344C6.1875 24.0014 5.99862 23.8125 5.76563 23.8125C5.53263 23.8125 5.34375 24.0014 5.34375 24.2344C5.34375 24.4674 5.53263 24.6562 5.76563 24.6562Z" fill="#3E4347"/>
<path d="M4.26563 25.5469C4.49862 25.5469 4.6875 25.358 4.6875 25.125C4.6875 24.892 4.49862 24.7031 4.26563 24.7031C4.03263 24.7031 3.84375 24.892 3.84375 25.125C3.84375 25.358 4.03263 25.5469 4.26563 25.5469Z" fill="#3E4347"/>
<path d="M4.03125 26.4845C4.21875 26.3438 4.5 26.4376 4.64062 26.6251C4.78125 26.8126 4.6875 27.0938 4.5 27.2345C4.3125 27.3751 4.03125 27.2813 3.89062 27.0938C3.75 26.8595 3.79688 26.6251 4.03125 26.4845Z" fill="#3E4347"/>
<path d="M5.76563 28.1719C5.99862 28.1719 6.1875 27.983 6.1875 27.75C6.1875 27.517 5.99862 27.3281 5.76563 27.3281C5.53263 27.3281 5.34375 27.517 5.34375 27.75C5.34375 27.983 5.53263 28.1719 5.76563 28.1719Z" fill="#3E4347"/>
<path d="M7.3125 27.2812C7.5455 27.2812 7.73438 27.0924 7.73438 26.8594C7.73438 26.6264 7.5455 26.4375 7.3125 26.4375C7.07951 26.4375 6.89062 26.6264 6.89062 26.8594C6.89062 27.0924 7.07951 27.2812 7.3125 27.2812Z" fill="#3E4347"/>
<path d="M7.3125 25.5469C7.5455 25.5469 7.73438 25.358 7.73438 25.125C7.73438 24.892 7.5455 24.7031 7.3125 24.7031C7.07951 24.7031 6.89062 24.892 6.89062 25.125C6.89062 25.358 7.07951 25.5469 7.3125 25.5469Z" fill="#3E4347"/>
<path d="M5.76563 26.9062C6.2575 26.9062 6.65625 26.5075 6.65625 26.0156C6.65625 25.5237 6.2575 25.125 5.76563 25.125C5.27375 25.125 4.875 25.5237 4.875 26.0156C4.875 26.5075 5.27375 26.9062 5.76563 26.9062Z" fill="#62727A"/>
<path d="M23.8125 24.6562C24.0455 24.6562 24.2344 24.4674 24.2344 24.2344C24.2344 24.0014 24.0455 23.8125 23.8125 23.8125C23.5795 23.8125 23.3906 24.0014 23.3906 24.2344C23.3906 24.4674 23.5795 24.6562 23.8125 24.6562Z" fill="#3E4347"/>
<path d="M22.2656 25.5469C22.4986 25.5469 22.6875 25.358 22.6875 25.125C22.6875 24.892 22.4986 24.7031 22.2656 24.7031C22.0326 24.7031 21.8438 24.892 21.8438 25.125C21.8438 25.358 22.0326 25.5469 22.2656 25.5469Z" fill="#3E4347"/>
<path d="M22.0311 26.4845C22.2186 26.3438 22.4998 26.4376 22.6405 26.6251C22.7811 26.8126 22.6873 27.0938 22.4998 27.2345C22.3123 27.3751 22.0311 27.2813 21.8905 27.0938C21.7498 26.8595 21.8436 26.6251 22.0311 26.4845Z" fill="#3E4347"/>
<path d="M23.8125 28.1719C24.0455 28.1719 24.2344 27.983 24.2344 27.75C24.2344 27.517 24.0455 27.3281 23.8125 27.3281C23.5795 27.3281 23.3906 27.517 23.3906 27.75C23.3906 27.983 23.5795 28.1719 23.8125 28.1719Z" fill="#3E4347"/>
<path d="M25.3125 27.2812C25.5455 27.2812 25.7344 27.0924 25.7344 26.8594C25.7344 26.6264 25.5455 26.4375 25.3125 26.4375C25.0795 26.4375 24.8906 26.6264 24.8906 26.8594C24.8906 27.0924 25.0795 27.2812 25.3125 27.2812Z" fill="#3E4347"/>
<path d="M25.3125 25.5469C25.5455 25.5469 25.7344 25.358 25.7344 25.125C25.7344 24.892 25.5455 24.7031 25.3125 24.7031C25.0795 24.7031 24.8906 24.892 24.8906 25.125C24.8906 25.358 25.0795 25.5469 25.3125 25.5469Z" fill="#3E4347"/>
<path d="M23.8125 26.9062C24.3044 26.9062 24.7031 26.5075 24.7031 26.0156C24.7031 25.5237 24.3044 25.125 23.8125 25.125C23.3206 25.125 22.9219 25.5237 22.9219 26.0156C22.9219 26.5075 23.3206 26.9062 23.8125 26.9062Z" fill="#62727A"/>
<path d="M13.3125 15.3281C13.0781 15.1406 12.75 15.0469 12.2813 15.0469C12 15.0469 11.7188 15.0469 11.5312 15.0938V17.625C11.6719 17.625 11.9062 17.6719 12.1875 17.6719C12.7031 17.6719 13.0781 17.5313 13.3594 17.2969C13.5937 17.0625 13.7812 16.7344 13.7812 16.2656C13.6875 15.8438 13.5469 15.5625 13.3125 15.3281V15.3281ZM12.2344 17.2969H11.9531V15.4688C12 15.4688 12.1406 15.4219 12.2813 15.4219C12.8906 15.4219 13.2188 15.75 13.2188 16.3125C13.2188 16.9688 12.8437 17.2969 12.2344 17.2969V17.2969ZM15.5625 16.5H14.5781V17.25H15.6563V17.625H14.1094V15.0469H15.6094V15.4688H14.5781V16.125H15.5625V16.5V16.5ZM16.5469 17.25V15.0469H16.0781V17.625H17.625V17.25H16.5469ZM17.9531 15.0469H18.4219V17.625H17.9531V15.0469ZM20.4844 15.0469L20.1094 16.2187C20.0156 16.5469 19.9219 16.8281 19.8281 17.1562C19.7812 16.8281 19.6875 16.5469 19.5937 16.2187L19.2187 15.0469H18.75L19.5937 17.625H20.1562L21.0469 15.0469H20.4844V15.0469ZM21.75 17.25V16.5H22.7344V16.125H21.75V15.4688H22.7812V15.0469H21.2813V17.625H22.8281V17.25H21.75ZM24.8906 16.9219C24.8437 16.6875 24.7031 16.5 24.5156 16.4063C24.75 16.3125 24.9844 16.0781 24.9844 15.75C24.9844 15.5156 24.8906 15.375 24.75 15.2344C24.5625 15.0938 24.3281 15.0469 23.9531 15.0469C23.6719 15.0469 23.4375 15.0469 23.25 15.0938V17.625H23.7187V16.5469H23.9531C24.2344 16.5469 24.3281 16.6406 24.4219 17.0156C24.5156 17.3438 24.5625 17.5312 24.6094 17.625H25.0781C25.0312 17.5312 24.9844 17.25 24.8906 16.9219ZM24 16.2187H23.7187V15.4219H24C24.3281 15.4219 24.5156 15.5625 24.5156 15.8438C24.5156 16.0781 24.3281 16.2187 24 16.2187V16.2187ZM26.7656 15.0469L26.4375 15.7031C26.3438 15.8906 26.2969 16.0312 26.2031 16.2187C26.1563 16.0312 26.0625 15.8906 25.9688 15.7031L25.6406 15.0469H25.125L25.9219 16.5469V17.625H26.3906V16.5469L27.2344 15.0469H26.7656" fill="white"/>
<path d="M12.7969 14.1563V11.5313C12.7969 11.2969 12.9844 11.1094 13.2188 11.1094H25.5C25.7344 11.1094 25.9219 11.2969 25.9219 11.5313V14.1563H26.8125V11.5313C26.8125 10.8281 26.2031 10.2188 25.5 10.2188H13.2188C12.4688 10.2188 11.9062 10.8281 11.9062 11.5313V14.1563H12.7969V14.1563ZM25.9687 18.5625V20.2969C25.9687 20.5312 25.7812 20.7188 25.5469 20.7188H13.2188C12.9844 20.7188 12.7969 20.5312 12.7969 20.2969V18.5625H11.9062V20.2969C11.9062 21 12.5156 21.6094 13.2188 21.6094H25.5C26.25 21.6094 26.8125 21 26.8125 20.2969V18.5625H25.9687" fill="#3E4347"/>
<path d="M13.6875 12.375C13.9205 12.375 14.1094 12.1861 14.1094 11.9531C14.1094 11.7201 13.9205 11.5312 13.6875 11.5312C13.4545 11.5312 13.2656 11.7201 13.2656 11.9531C13.2656 12.1861 13.4545 12.375 13.6875 12.375Z" fill="#B2C1C0"/>
<path d="M25.125 12.375C25.358 12.375 25.5469 12.1861 25.5469 11.9531C25.5469 11.7201 25.358 11.5312 25.125 11.5312C24.892 11.5312 24.7031 11.7201 24.7031 11.9531C24.7031 12.1861 24.892 12.375 25.125 12.375Z" fill="#B2C1C0"/>
<path d="M13.6875 20.2969C13.9205 20.2969 14.1094 20.108 14.1094 19.875C14.1094 19.642 13.9205 19.4531 13.6875 19.4531C13.4545 19.4531 13.2656 19.642 13.2656 19.875C13.2656 20.108 13.4545 20.2969 13.6875 20.2969Z" fill="#B2C1C0"/>
<path d="M25.125 20.2969C25.358 20.2969 25.5469 20.108 25.5469 19.875C25.5469 19.642 25.358 19.4531 25.125 19.4531C24.892 19.4531 24.7031 19.642 24.7031 19.875C24.7031 20.108 24.892 20.2969 25.125 20.2969Z" fill="#B2C1C0"/>
<path d="M17.625 26.0156C17.625 26.4844 17.25 26.9063 16.7344 26.9063H13.2188C12.75 26.9063 12.3281 26.5312 12.3281 26.0156V25.125C12.3281 24.6562 12.7031 24.2344 13.2188 24.2344H16.7344C17.2031 24.2344 17.625 24.6094 17.625 25.125V26.0156Z" fill="#62727A"/>
<path d="M13.3594 24.7031C13.0781 24.7031 12.7969 24.8906 12.7969 25.125C12.7969 25.3594 13.0313 25.5469 13.3594 25.5469H16.6406C16.9219 25.5469 17.2031 25.3594 17.2031 25.125C17.2031 24.8906 16.9687 24.7031 16.6406 24.7031H13.3594Z" fill="#B2C1C0"/>
</svg>
