<svg width="20" height="20" viewBox="0 0 20 20" fill="none" xmlns="http://www.w3.org/2000/svg">
<path d="M4.0625 2.50003C3.97962 2.50003 3.90013 2.53295 3.84153 2.59156C3.78292 2.65016 3.75 2.72965 3.75 2.81253V13.4375C3.75 13.6088 3.89 13.75 4.0625 13.75H6.25V15H4.0625C3.2 15 2.5 14.3 2.5 13.4363L2.5025 2.81128C2.5025 1.94878 3.2025 1.24878 4.065 1.24878H9.69375C10.5562 1.24878 11.2562 1.94878 11.2562 2.81378L11.2537 5.31128C11.2537 5.48378 11.3925 5.62378 11.5662 5.62378H12.1875C12.5911 5.62344 12.9792 5.77928 13.2704 6.05866C13.5617 6.33804 13.7335 6.71928 13.75 7.12253C13.1747 6.79095 12.4913 6.70147 11.85 6.87378H11.5662C11.3607 6.87444 11.1571 6.83444 10.967 6.75609C10.777 6.67774 10.6044 6.56258 10.459 6.41724C10.3137 6.2719 10.1985 6.09925 10.1202 5.90923C10.0418 5.71921 10.0018 5.51557 10.0025 5.31003L10.005 2.81128C10.005 2.7284 9.97207 2.64891 9.91347 2.59031C9.85487 2.5317 9.77538 2.49878 9.6925 2.49878H4.0625V2.50003ZM13.35 8.37378C13.1188 8.15905 12.8149 8.03971 12.4994 8.03971C12.1838 8.03971 11.88 8.15905 11.6487 8.37378L8.09875 11.67C7.90947 11.8456 7.75848 12.0583 7.65524 12.2949C7.55199 12.5315 7.49872 12.7869 7.49875 13.045V17.4988C7.49875 17.8303 7.63045 18.1482 7.86487 18.3827C8.09929 18.6171 8.41723 18.7488 8.74875 18.7488H10.6237C10.9553 18.7488 11.2732 18.6171 11.5076 18.3827C11.7421 18.1482 11.8737 17.8303 11.8737 17.4988V16.2488H13.1237V17.4988C13.1237 17.8303 13.2554 18.1482 13.4899 18.3827C13.7243 18.6171 14.0422 18.7488 14.3737 18.7488H16.2487C16.5803 18.7488 16.8982 18.6171 17.1326 18.3827C17.3671 18.1482 17.4987 17.8303 17.4987 17.4988V13.0438C17.4986 12.7858 17.4452 12.5307 17.342 12.2943C17.2388 12.058 17.0879 11.8454 16.8987 11.67L13.35 8.37503V8.37378ZM8.94875 12.5863L12.4987 9.29003L16.0487 12.5863C16.1117 12.6447 16.162 12.7155 16.1964 12.7942C16.2308 12.8729 16.2486 12.9579 16.2487 13.0438V17.5H14.3737V16.25C14.3737 15.9185 14.2421 15.6006 14.0076 15.3661C13.7732 15.1317 13.4553 15 13.1237 15H11.8737C11.5422 15 11.2243 15.1317 10.9899 15.3661C10.7554 15.6006 10.6237 15.9185 10.6237 16.25V17.5H8.74875V13.045C8.74885 12.9591 8.76667 12.8742 8.80108 12.7954C8.83549 12.7167 8.88576 12.6459 8.94875 12.5875V12.5863ZM6.24875 4.37378C6.24875 4.53954 6.1829 4.69851 6.06569 4.81572C5.94848 4.93293 5.78951 4.99878 5.62375 4.99878C5.45799 4.99878 5.29902 4.93293 5.18181 4.81572C5.0646 4.69851 4.99875 4.53954 4.99875 4.37378C4.99875 4.20802 5.0646 4.04905 5.18181 3.93184C5.29902 3.81463 5.45799 3.74878 5.62375 3.74878C5.78951 3.74878 5.94848 3.81463 6.06569 3.93184C6.1829 4.04905 6.24875 4.20802 6.24875 4.37378ZM5.62375 7.49878C5.78951 7.49878 5.94848 7.43293 6.06569 7.31572C6.1829 7.19851 6.24875 7.03954 6.24875 6.87378C6.24875 6.70802 6.1829 6.54905 6.06569 6.43184C5.94848 6.31463 5.78951 6.24878 5.62375 6.24878C5.45799 6.24878 5.29902 6.31463 5.18181 6.43184C5.0646 6.54905 4.99875 6.70802 4.99875 6.87378C4.99875 7.03954 5.0646 7.19851 5.18181 7.31572C5.29902 7.43293 5.45799 7.49878 5.62375 7.49878ZM6.24875 9.37378C6.24875 9.53954 6.1829 9.69851 6.06569 9.81572C5.94848 9.93293 5.78951 9.99878 5.62375 9.99878C5.45799 9.99878 5.29902 9.93293 5.18181 9.81572C5.0646 9.69851 4.99875 9.53954 4.99875 9.37378C4.99875 9.20802 5.0646 9.04905 5.18181 8.93184C5.29902 8.81463 5.45799 8.74878 5.62375 8.74878C5.78951 8.74878 5.94848 8.81463 6.06569 8.93184C6.1829 9.04905 6.24875 9.20802 6.24875 9.37378ZM8.12375 4.99878C8.28951 4.99878 8.44848 4.93293 8.56569 4.81572C8.6829 4.69851 8.74875 4.53954 8.74875 4.37378C8.74875 4.20802 8.6829 4.04905 8.56569 3.93184C8.44848 3.81463 8.28951 3.74878 8.12375 3.74878C7.95799 3.74878 7.79902 3.81463 7.68181 3.93184C7.5646 4.04905 7.49875 4.20802 7.49875 4.37378C7.49875 4.53954 7.5646 4.69851 7.68181 4.81572C7.79902 4.93293 7.95799 4.99878 8.12375 4.99878ZM8.74875 6.87378C8.74875 7.03954 8.6829 7.19851 8.56569 7.31572C8.44848 7.43293 8.28951 7.49878 8.12375 7.49878C7.95799 7.49878 7.79902 7.43293 7.68181 7.31572C7.5646 7.19851 7.49875 7.03954 7.49875 6.87378C7.49875 6.70802 7.5646 6.54905 7.68181 6.43184C7.79902 6.31463 7.95799 6.24878 8.12375 6.24878C8.28951 6.24878 8.44848 6.31463 8.56569 6.43184C8.6829 6.54905 8.74875 6.70802 8.74875 6.87378ZM8.12375 9.99878C8.28951 9.99878 8.44848 9.93293 8.56569 9.81572C8.6829 9.69851 8.74875 9.53954 8.74875 9.37378C8.74875 9.20802 8.6829 9.04905 8.56569 8.93184C8.44848 8.81463 8.28951 8.74878 8.12375 8.74878C7.95799 8.74878 7.79902 8.81463 7.68181 8.93184C7.5646 9.04905 7.49875 9.20802 7.49875 9.37378C7.49875 9.53954 7.5646 9.69851 7.68181 9.81572C7.79902 9.93293 7.95799 9.99878 8.12375 9.99878Z" fill="black"/>
</svg>
