<svg width="80" height="41" viewBox="0 0 80 41" fill="none" xmlns="http://www.w3.org/2000/svg">
<path d="M8.22451 38.7505C4.6862 38.7505 1.81782 35.8821 1.81782 32.3438V8.68829C1.81782 5.14997 4.68619 2.2816 8.22451 2.2816H71.3058C74.8441 2.2816 77.7125 5.14997 77.7125 8.68829V32.3438C77.7125 35.8821 74.8441 38.7505 71.3058 38.7505H8.22451Z" stroke="#E0E9EF" stroke-width="2.95693"/>
<path d="M30.3529 24.7838C29.6905 24.7838 29.3594 24.4388 29.3594 23.7488V15.8834C29.3594 15.5338 29.4422 15.267 29.6077 15.0831C29.7825 14.8991 30.0125 14.8071 30.2977 14.8071C30.5369 14.8071 30.7255 14.8577 30.8635 14.9589C31.0014 15.0509 31.1578 15.2072 31.3326 15.428L35.8035 21.127V15.8282C35.8035 15.1474 36.1347 14.8071 36.797 14.8071C37.4594 14.8071 37.7906 15.1474 37.7906 15.8282V23.7902C37.7906 24.0938 37.7124 24.3376 37.556 24.5216C37.3996 24.6964 37.188 24.7838 36.9212 24.7838C36.6636 24.7838 36.4567 24.7332 36.3003 24.632C36.1531 24.5308 35.9921 24.3698 35.8173 24.149L31.3464 18.45V23.7488C31.3464 24.4388 31.0152 24.7838 30.3529 24.7838ZM45.6595 24.8114C44.7027 24.8114 43.861 24.6044 43.1343 24.1904C42.4167 23.7672 41.8555 23.1831 41.4508 22.4379C41.0552 21.6836 40.8574 20.8004 40.8574 19.7885C40.8574 18.7766 41.0552 17.8981 41.4508 17.1529C41.8555 16.3986 42.4167 15.8144 43.1343 15.4004C43.8518 14.9865 44.6935 14.7795 45.6595 14.7795C46.6254 14.7795 47.4671 14.9865 48.1847 15.4004C48.9114 15.8144 49.4726 16.3986 49.8682 17.1529C50.273 17.8981 50.4753 18.772 50.4753 19.7747C50.4753 20.7867 50.273 21.6698 49.8682 22.4241C49.4726 23.1785 48.9114 23.7672 48.1847 24.1904C47.4671 24.6044 46.6254 24.8114 45.6595 24.8114ZM45.6595 22.9899C46.469 22.9899 47.0992 22.7093 47.5499 22.1482C48.0099 21.5778 48.2399 20.7912 48.2399 19.7885C48.2399 18.7766 48.0145 17.9946 47.5637 17.4427C47.113 16.8815 46.4782 16.6009 45.6595 16.6009C44.8591 16.6009 44.229 16.8815 43.769 17.4427C43.3182 17.9946 43.0929 18.7766 43.0929 19.7885C43.0929 20.7912 43.3182 21.5778 43.769 22.1482C44.229 22.7093 44.8591 22.9899 45.6595 22.9899Z" fill="#3C3C3C"/>
</svg>
