<svg width="20" height="17" viewBox="0 0 20 17" fill="none" xmlns="http://www.w3.org/2000/svg">
<path d="M18.3203 5.65403H16.6797C16.1068 5.65403 15.8203 5.38841 15.8203 4.85716V3.22546C15.8203 2.7954 15.6576 2.42226 15.332 2.10604C15.0065 1.78982 14.6224 1.63171 14.1797 1.63171H1.67969C1.21094 1.63171 0.813802 1.78982 0.488281 2.10604C0.16276 2.42226 0 2.7954 0 3.22546V10.5112C0 10.9665 0.16276 11.3523 0.488281 11.6685C0.813802 11.9848 1.21094 12.1429 1.67969 12.1429H1.83594C1.99219 12.6235 2.28516 13.0156 2.71484 13.3192C3.14453 13.6228 3.63281 13.7746 4.17969 13.7746C4.70052 13.7746 5.17578 13.6165 5.60547 13.3002C6.03516 12.984 6.32812 12.5982 6.48438 12.1429H13.3984C13.7891 13.2307 14.5703 13.7746 15.7422 13.7746C16.263 13.7746 16.7383 13.6165 17.168 13.3002C17.5977 12.984 17.9036 12.5982 18.0859 12.1429H18.3203C18.7891 12.1429 19.1862 11.9848 19.5117 11.6685C19.8372 11.3523 20 10.9665 20 10.5112V7.28573C20 6.85567 19.8372 6.4762 19.5117 6.14734C19.1862 5.81847 18.7891 5.65403 18.3203 5.65403ZM4.17969 12.1429C3.91927 12.1429 3.71094 12.067 3.55469 11.9152C3.39844 11.7634 3.32031 11.5737 3.32031 11.346C3.32031 10.7894 3.60677 10.5112 4.17969 10.5112C4.41406 10.5112 4.60938 10.5871 4.76562 10.7388C4.92188 10.8906 5 11.093 5 11.346C5 11.5737 4.92188 11.7634 4.76562 11.9152C4.60938 12.067 4.41406 12.1429 4.17969 12.1429ZM15.8203 12.1429C15.5859 12.1429 15.3906 12.067 15.2344 11.9152C15.0781 11.7634 15 11.5737 15 11.346C15 11.093 15.0781 10.8906 15.2344 10.7388C15.3906 10.5871 15.5859 10.5112 15.8203 10.5112C16.3932 10.5112 16.6797 10.7894 16.6797 11.346C16.6797 11.5737 16.6016 11.7634 16.4453 11.9152C16.2891 12.067 16.0807 12.1429 15.8203 12.1429ZM18.1641 10.5112C18.0078 10.0558 17.7083 9.67635 17.2656 9.37278C16.8229 9.06921 16.3411 8.91742 15.8203 8.91742C15.2995 8.91742 14.8242 9.06288 14.3945 9.35381C13.9648 9.64473 13.6719 10.0305 13.5156 10.5112H6.48438C6.32812 10.0558 6.03516 9.67635 5.60547 9.37278C5.17578 9.06921 4.70052 8.91742 4.17969 8.91742C3.63281 8.91742 3.14453 9.06288 2.71484 9.35381C2.28516 9.64473 1.99219 10.0305 1.83594 10.5112H1.67969V3.22546H14.1797V4.06028H13.3203C12.7734 4.06028 12.5 4.32591 12.5 4.85716V5.65403C12.5 5.90701 12.5781 6.10939 12.7344 6.26117C12.8906 6.41296 13.0859 6.48885 13.3203 6.48885H14.8438C15.3125 7.0201 15.9245 7.28573 16.6797 7.28573H17.7344C17.9688 7.564 18.1641 7.75373 18.3203 7.85492V10.5112H18.1641ZM10.8203 4.06028H3.32031C2.77344 4.06028 2.5 4.32591 2.5 4.85716V5.65403C2.5 5.90701 2.57812 6.10939 2.73438 6.26117C2.89062 6.41296 3.08594 6.48885 3.32031 6.48885H10.8203C11.3932 6.48885 11.6797 6.21058 11.6797 5.65403V4.85716C11.6797 4.32591 11.3932 4.06028 10.8203 4.06028Z" fill="black"/>
</svg>
